  0
SECTION
  2
HEADER
  9
$ACADVER
  1
AC1018
  9
$ACADMAINTVER
 70
     0
  9
$DWGCODEPAGE
  3
ANSI_1252
  9
$EXTMIN
 10
700285.326264245
 20
9320365.79556585
 30
0.0
  9
$EXTMAX
 10
704567.869968847
 20
9322823.18096151
 30
0.0
  9
$LIMMIN
 10
0.0
 20
0.0
  9
$LIMMAX
 10
12.0
 20
9.0
  9
$ORTHOMODE
 70
     0
  9
$REGENMODE
 70
     1
  9
$FILLMODE
 70
     1
  9
$QTEXTMODE
 70
     0
  9
$MIRRTEXT
 70
     1
  9
$LTSCALE
 40
1.0
  9
$ATTMODE
 70
     1
  9
$TEXTSIZE
 40
0.2
  9
$TRACEWID
 40
0.05
  9
$TEXTSTYLE
  7
Standard
  9
$CLAYER
  8
0
  9
$CELTYPE
  6
ByLayer
  9
$CECOLOR
 62
   256
  9
$CELTSCALE
 40
1.0
  9
$DISPSILH
 70
     0
  9
$LUNITS
 70
     2
  9
$LUPREC
 70
     4
  9
$SKETCHINC
 40
0.1
  9
$FILLETRAD
 40
0.5
  9
$AUNITS
 70
     0
  9
$AUPREC
 70
     0
  9
$MENU
  1
.
  9
$ELEVATION
 40
0.0
  9
$PELEVATION
 40
0.0
  9
$THICKNESS
 40
0.0
  9
$LIMCHECK
 70
     0
  9
$CHAMFERA
 40
0.5
  9
$CHAMFERB
 40
0.5
  9
$CHAMFERC
 40
1.0
  9
$CHAMFERD
 40
0.0
  9
$SKPOLY
 70
     0
  9
$ANGBASE
 50
0.0
  9
$ANGDIR
 70
     0
  9
$PDMODE
 70
     0
  9
$PDSIZE
 40
0.0
  9
$PLINEWID
 40
0.0
  9
$SPLFRAME
 70
     0
  9
$SPLINETYPE
 70
     6
  9
$SPLINESEGS
 70
     8
  9
$HANDSEED
  5
00020011
  9
$SURFTAB1
 70
     6
  9
$SURFTAB2
 70
     6
  9
$SURFTYPE
 70
     6
  9
$SURFU
 70
     6
  9
$SURFV
 70
     6
  9
$UCSBASE
  2

  9
$UCSNAME
  2

  9
$UCSORG
 10
0.0
 20
0.0
 30
0.0
  9
$UCSXDIR
 10
1.0
 20
0.0
 30
0.0
  9
$UCSYDIR
 10
0.0
 20
1.0
 30
0.0
  9
$UCSORTHOREF
  2

  9
$UCSORTHOVIEW
 70
     0
  9
$UCSORGTOP
 10
0.0
 20
0.0
 30
0.0
  9
$UCSORGBOTTOM
 10
0.0
 20
0.0
 30
0.0
  9
$UCSORGLEFT
 10
0.0
 20
0.0
 30
0.0
  9
$UCSORGRIGHT
 10
0.0
 20
0.0
 30
0.0
  9
$UCSORGFRONT
 10
0.0
 20
0.0
 30
0.0
  9
$UCSORGBACK
 10
0.0
 20
0.0
 30
0.0
  9
$PUCSBASE
  2

  9
$PUCSNAME
  2

  9
$PUCSORG
 10
0.0
 20
0.0
 30
0.0
  9
$PUCSXDIR
 10
1.0
 20
0.0
 30
0.0
  9
$PUCSYDIR
 10
0.0
 20
1.0
 30
0.0
  9
$PUCSORTHOREF
  2

  9
$PUCSORTHOVIEW
 70
     0
  9
$PUCSORGTOP
 10
0.0
 20
0.0
 30
0.0
  9
$PUCSORGBOTTOM
 10
0.0
 20
0.0
 30
0.0
  9
$PUCSORGLEFT
 10
0.0
 20
0.0
 30
0.0
  9
$PUCSORGRIGHT
 10
0.0
 20
0.0
 30
0.0
  9
$PUCSORGFRONT
 10
0.0
 20
0.0
 30
0.0
  9
$PUCSORGBACK
 10
0.0
 20
0.0
 30
0.0
  9
$WORLDVIEW
 70
     1
  9
$SHADEDGE
 70
     3
  9
$SHADEDIF
 70
    70
  9
$TILEMODE
 70
     1
  9
$MAXACTVP
 70
    64
  9
$PINSBASE
 10
0.0
 20
0.0
 30
0.0
  9
$PLIMCHECK
 70
     0
  9
$PEXTMIN
 10
1.000000000000000E+20
 20
1.000000000000000E+20
 30
1.000000000000000E+20
  9
$PEXTMAX
 10
-1.000000000000000E+20
 20
-1.000000000000000E+20
 30
-1.000000000000000E+20
  9
$PLIMMIN
 10
0.0
 20
0.0
  9
$PLIMMAX
 10
12.0
 20
9.0
  9
$UNITMODE
 70
     0
  9
$VISRETAIN
 70
     1
  9
$PLINEGEN
 70
     0
  9
$PSLTSCALE
 70
     1
  9
$TREEDEPTH
 70
  3020
  9
$CMLSTYLE
  2
Standard
  9
$CMLJUST
 70
     0
  9
$CMLSCALE
 40
1.0
  9
$PROXYGRAPHICS
 70
     1
  9
$MEASUREMENT
 70
     0
  9
$CELWEIGHT
370
    -1
  9
$ENDCAPS
280
     0
  9
$JOINSTYLE
280
     0
  9
$LWDISPLAY
290
     0
  9
$INSUNITS
 70
     1
  9
$HYPERLINKBASE
  1

  9
$STYLESHEET
  1

  9
$XEDIT
290
     1
  9
$CEPSNTYPE
380
     0
  9
$PSTYLEMODE
290
     1
  9
$EXTNAMES
290
     1
  9
$PSVPSCALE
 40
0.0
  9
$OLESTARTUP
290
     0
  9
$SORTENTS
280
   127
  9
$INDEXCTL
280
     0
  9
$HIDETEXT
280
     1
  9
$XCLIPFRAME
290
     0
  9
$HALOGAP
280
     0
  9
$OBSCOLOR
 70
   257
  9
$OBSLTYPE
280
     0
  9
$INTERSECTIONDISPLAY
280
     0
  9
$INTERSECTIONCOLOR
 70
   257
  9
$DIMASSOC
280
     2
  9
$PROJECTNAME
  1

  0
ENDSEC
  0
SECTION
  2
CLASSES
  0
CLASS
  1
ACDBDICTIONARYWDFLT
  2
AcDbDictionaryWithDefault
  3
ObjectDBX Classes
 90
        0
 91
        4
280
     0
281
     0
  0
ENDSEC
  0
SECTION
  2
TABLES
  0
TABLE
  2
VPORT
  5
8
330
0
100
AcDbSymbolTable
 70
     1
  0
VPORT
  5
29
330
8
100
AcDbSymbolTableRecord
100
AcDbViewportTableRecord
  2
*Active
 70
     0
 10
0.0
 20
0.0
 11
1.0
 21
1.0
 12
80.25
 22
106.4409457059851
 13
0.0
 23
0.0
 14
0.5
 24
0.5
 15
0.5
 25
0.5
 16
0.0
 26
0.0
 36
1.0
 17
0.0
 27
0.0
 37
0.0
 40
113.3818914119703
 41
0.8863849310366128
 42
50.0
 43
0.0
 44
0.0
 50
0.0
 51
0.0
 71
     0
 72
  1000
 73
     1
 74
     3
 75
     0
 76
     0
 77
     0
 78
     0
281
     0
 65
     1
110
0.0
120
0.0
130
0.0
111
1.0
121
0.0
131
0.0
112
0.0
122
1.0
132
0.0
 79
     0
146
0.0
  0
ENDTAB
  0
TABLE
  2
LTYPE
  5
5
330
0
100
AcDbSymbolTable
 70
     1
  0
LTYPE
  5
14
330
5
100
AcDbSymbolTableRecord
100
AcDbLinetypeTableRecord
  2
ByBlock
 70
     0
  3

 72
    65
 73
     0
 40
0.0
  0
LTYPE
  5
15
330
5
100
AcDbSymbolTableRecord
100
AcDbLinetypeTableRecord
  2
ByLayer
 70
     0
  3

 72
    65
 73
     0
 40
0.0
  0
LTYPE
  5
16
330
5
100
AcDbSymbolTableRecord
100
AcDbLinetypeTableRecord
  2
Continuous
 70
     0
  3
Solid line
 72
    65
 73
     0
 40
0.0
  0
ENDTAB
  0
TABLE
  2
LAYER
  5
2
330
0
100
AcDbSymbolTable
 70
     1
  0
LAYER
  5
10
330
2
100
AcDbSymbolTableRecord
100
AcDbLayerTableRecord
  2
0
 70
     0
 62
     7
  6
Continuous
370
    -3
390
F
  0
ENDTAB
  0
TABLE
  2
STYLE
  5
3
330
0
100
AcDbSymbolTable
 70
     1
  0
STYLE
  5
11
330
3
100
AcDbSymbolTableRecord
100
AcDbTextStyleTableRecord
  2
Standard
 70
     0
 40
0.0
 41
1.0
 50
0.0
 71
     0
 42
0.2
  3
txt
  4

  0
ENDTAB
  0
TABLE
  2
VIEW
  5
6
330
0
100
AcDbSymbolTable
 70
     0
  0
ENDTAB
  0
TABLE
  2
UCS
  5
7
330
0
100
AcDbSymbolTable
 70
     0
  0
ENDTAB
  0
TABLE
  2
APPID
  5
9
330
0
100
AcDbSymbolTable
 70
     1
  0
APPID
  5
12
330
9
100
AcDbSymbolTableRecord
100
AcDbRegAppTableRecord
  2
ACAD
 70
     0
  0
ENDTAB
  0
TABLE
  2
DIMSTYLE
  5
A
330
0
100
AcDbSymbolTable
 70
     1
100
AcDbDimStyleTable
  0
DIMSTYLE
105
27
330
A
100
AcDbSymbolTableRecord
100
AcDbDimStyleTableRecord
  2
Standard
 70
     0
340
11
  0
ENDTAB
  0
TABLE
  2
BLOCK_RECORD
  5
1
330
0
100
AcDbSymbolTable
 70
     1
  0
BLOCK_RECORD
  5
1F
330
1
100
AcDbSymbolTableRecord
100
AcDbBlockTableRecord
  2
*Model_Space
340
22
  0
BLOCK_RECORD
  5
1B
330
1
100
AcDbSymbolTableRecord
100
AcDbBlockTableRecord
  2
*Paper_Space
340
1E
  0
ENDTAB
  0
ENDSEC
  0
SECTION
  2
BLOCKS
  0
BLOCK
  5
20
330
1F
100
AcDbEntity
  8
0
100
AcDbBlockBegin
  2
*Model_Space
 70
     0
 10
0.0
 20
0.0
 30
0.0
  3
*Model_Space
  1

  0
ENDBLK
  5
21
330
1F
100
AcDbEntity
  8
0
100
AcDbBlockEnd
  0
BLOCK
  5
1C
330
1B
100
AcDbEntity
 67
     1
  8
0
100
AcDbBlockBegin
  2
*Paper_Space
 70
     0
 10
0.0
 20
0.0
 30
0.0
  3
*Paper_Space
  1

  0
ENDBLK
  5
1D
330
1B
100
AcDbEntity
 67
     1
  8
0
100
AcDbBlockEnd
  0
ENDSEC
  0
SECTION
  2
ENTITIES
  0
HATCH
  5
20000
100
AcDbEntity
  8
0
100
AcDbHatch
 10
0
 20
0
 30
0
210
0
220
0
230
1
  2
SOLID
 70
1
 71
0
 91
1
 92
2
 72
0
 73
1
 93
28
 10
703633.937499774
 20
9321294.70915413
 10
703792.887069809
 20
9321675.98531015
 10
703874.392980473
 20
9321879.63096787
 10
703963.086466121
 20
9322096.01984225
 10
703998.634260237
 20
9322150.78223183
 10
704039.938278307
 20
9322196.50382365
 10
704088.273054796
 20
9322237.28778052
 10
704156.669183341
 20
9322273.95982979
 10
703620.499051701
 20
9322171.10837239
 10
703675.707945539
 20
9321840.08273028
 10
703681.543236462
 20
9321743.68010839
 10
703340.704800749
 20
9321718.3279832
 10
703306.66289824
 20
9322114.67885807
 10
703151.763908194
 20
9322091.26782809
 10
703026.007952907
 20
9322048.81029642
 10
702661.766592901
 20
9321866.47355917
 10
702671.517685424
 20
9321847.47482314
 10
702782.023160794
 20
9321852.11995791
 10
702905.011740886
 20
9321826.65423048
 10
703037.142304411
 20
9321696.04347232
 10
703064.496421355
 20
9321590.49901054
 10
702746.320855129
 20
9321536.77162273
 10
702789.163698151
 20
9321318.84537229
 10
702907.330138996
 20
9321344.10930625
 10
703021.941407726
 20
9321272.25252627
 10
702927.123587379
 20
9321100.85092631
 10
703433.176915502
 20
9320811.37326434
 10
703633.937499774
 20
9321294.70915413
 97
0
 75
0
 76
1
 98
0
  0
HATCH
  5
20001
100
AcDbEntity
  8
0
100
AcDbHatch
 10
0
 20
0
 30
0
210
0
220
0
230
1
  2
SOLID
 70
1
 71
0
 91
1
 92
2
 72
0
 73
1
 93
19
 10
704213.315529361
 20
9322271.69858433
 10
704180.335463955
 20
9322257.79435712
 10
704119.869895239
 20
9322223.63570542
 10
704059.757108132
 20
9322185.4134055
 10
704007.456294749
 20
9322134.73476897
 10
703964.087429012
 20
9322070.87001576
 10
703909.060951817
 20
9321917.54372555
 10
704026.601552263
 20
9321875.58998421
 10
704049.173239495
 20
9321872.4836861
 10
704065.484012661
 20
9321925.14716128
 10
704123.171481637
 20
9321929.02375343
 10
704169.634454527
 20
9321943.14890683
 10
704158.519678866
 20
9321981.10816269
 10
704209.387790209
 20
9321996.3763639
 10
704234.723129676
 20
9321951.10348257
 10
704260.652271889
 20
9321889.95152487
 10
704293.737593332
 20
9321904.26660401
 10
704273.189324756
 20
9322056.35462335
 10
704213.315529361
 20
9322271.69858433
 97
0
 75
0
 76
1
 98
0
  0
HATCH
  5
20002
100
AcDbEntity
  8
0
100
AcDbHatch
 10
0
 20
0
 30
0
210
0
220
0
230
1
  2
SOLID
 70
1
 71
0
 91
1
 92
2
 72
0
 73
1
 93
12
 10
704458.203584646
 20
9322310.80281742
 10
704310.094129277
 20
9322291.92416876
 10
704313.117666985
 20
9322247.08437073
 10
704272.534606259
 20
9322223.26698602
 10
704357.560323191
 20
9321882.60631112
 10
704567.869968847
 20
9322008.38213845
 10
704530.485325721
 20
9322056.66819017
 10
704521.827775532
 20
9322117.48684298
 10
704503.323390748
 20
9322148.83119678
 10
704479.323787082
 20
9322197.6433834
 10
704462.874938937
 20
9322239.88436642
 10
704458.203584646
 20
9322310.80281742
 97
0
 75
0
 76
1
 98
0
  0
HATCH
  5
20003
100
AcDbEntity
  8
0
100
AcDbHatch
 10
0
 20
0
 30
0
210
0
220
0
230
1
  2
SOLID
 70
1
 71
0
 91
1
 92
2
 72
0
 73
1
 93
8
 10
704152.454276238
 20
9321713.49930358
 10
703862.253654413
 20
9321794.1244719
 10
703465.939974227
 20
9320787.49198623
 10
703974.048713576
 20
9320492.43471313
 10
704221.333160894
 20
9320956.90257994
 10
704207.85410769
 20
9321366.756873
 10
704189.89635219
 20
9321509.6673757
 10
704152.454276238
 20
9321713.49930358
 97
0
 75
0
 76
1
 98
0
  0
HATCH
  5
20004
100
AcDbEntity
  8
0
100
AcDbHatch
 10
0
 20
0
 30
0
210
0
220
0
230
1
  2
SOLID
 70
1
 71
0
 91
1
 92
2
 72
0
 73
1
 93
12
 10
702838.207410129
 20
9321084.95977649
 10
702899.138944897
 20
9320793.23529171
 10
702985.006753208
 20
9320752.87548217
 10
703096.338905663
 20
9320685.05208995
 10
703182.434106586
 20
9320579.37723816
 10
703244.979780293
 20
9320490.0052899
 10
703289.466178663
 20
9320365.79556585
 10
703292.974257643
 20
9320407.03706335
 10
703308.455034948
 20
9320479.51112832
 10
703419.838457045
 20
9320770.33775152
 10
702870.606255159
 20
9321099.80481974
 10
702838.207410129
 20
9321084.95977649
 97
0
 75
0
 76
1
 98
0
  0
HATCH
  5
20005
100
AcDbEntity
  8
0
100
AcDbHatch
 10
0
 20
0
 30
0
210
0
220
0
230
1
  2
SOLID
 70
1
 71
0
 91
1
 92
2
 72
0
 73
1
 93
10
 10
702297.936857782
 20
9321660.5009365
 10
702389.692965332
 20
9321680.58330499
 10
702426.535881011
 20
9321704.80798392
 10
702451.560847564
 20
9321738.59274718
 10
702406.318791726
 20
9321771.21287178
 10
702278.544096866
 20
9321721.14065617
 10
702212.338127469
 20
9321706.33601742
 10
702230.951450965
 20
9321680.71568186
 10
702279.568240019
 20
9321695.48933581
 10
702297.936857782
 20
9321660.5009365
 97
0
 75
0
 76
1
 98
0
  0
HATCH
  5
20006
100
AcDbEntity
  8
0
100
AcDbHatch
 10
0
 20
0
 30
0
210
0
220
0
230
1
  2
SOLID
 70
1
 71
0
 91
1
 92
2
 72
0
 73
1
 93
11
 10
701974.119388706
 20
9321678.29310479
 10
701729.738974179
 20
9321618.15819595
 10
701705.335152544
 20
9321647.62341214
 10
701620.946864625
 20
9321632.95899519
 10
701570.826971159
 20
9321583.62781203
 10
701517.552536843
 20
9321508.18299909
 10
701465.678150988
 20
9321450.42305274
 10
701566.962645794
 20
9321500.23526419
 10
701654.029577693
 20
9321562.29805103
 10
701982.004936188
 20
9321652.75619526
 10
701974.119388706
 20
9321678.29310479
 97
0
 75
0
 76
1
 98
0
  0
HATCH
  5
20007
100
AcDbEntity
  8
0
100
AcDbHatch
 10
0
 20
0
 30
0
210
0
220
0
230
1
  2
SOLID
 70
1
 71
0
 91
1
 92
2
 72
0
 73
1
 93
12
 10
701135.375902735
 20
9321596.52626867
 10
701170.867691175
 20
9321503.08619451
 10
701313.312363005
 20
9321514.99214968
 10
701329.942572518
 20
9321424.34050918
 10
701405.157324449
 20
9321447.95874774
 10
701450.626942438
 20
9321470.53004632
 10
701514.306772183
 20
9321535.33856357
 10
701559.308201854
 20
9321593.71673613
 10
701618.458248196
 20
9321661.50042804
 10
701690.584918286
 20
9321712.64265591
 10
701682.395838449
 20
9321745.40565448
 10
701135.375902735
 20
9321596.52626867
 97
0
 75
0
 76
1
 98
0
  0
HATCH
  5
20008
100
AcDbEntity
  8
0
100
AcDbHatch
 10
0
 20
0
 30
0
210
0
220
0
230
1
  2
SOLID
 70
1
 71
0
 91
1
 92
2
 72
0
 73
1
 93
9
 10
701516.569258248
 20
9321331.70069108
 10
701462.895729881
 20
9321352.80989642
 10
701398.697213758
 20
9321374.98510781
 10
701349.941972325
 20
9321361.8821268
 10
701294.140693382
 20
9321343.97874648
 10
701169.456067931
 20
9321310.8861555
 10
701187.798631974
 20
9321265.38713071
 10
701335.03344358
 20
9321302.55783584
 10
701516.569258248
 20
9321331.70069108
 97
0
 75
0
 76
1
 98
0
  0
HATCH
  5
20009
100
AcDbEntity
  8
0
100
AcDbHatch
 10
0
 20
0
 30
0
210
0
220
0
230
1
  2
SOLID
 70
1
 71
0
 91
1
 92
2
 72
0
 73
1
 93
9
 10
700882.125709751
 20
9322063.14078272
 10
700923.575379566
 20
9322055.64372611
 10
700994.550313746
 20
9322017.88319537
 10
701221.46992896
 20
9321889.11887379
 10
701227.453340161
 20
9321906.75280657
 10
701058.204728142
 20
9322007.36923976
 10
700994.649820207
 20
9322048.78275167
 10
700886.682791088
 20
9322099.17766776
 10
700882.125709751
 20
9322063.14078272
 97
0
 75
0
 76
1
 98
0
  0
HATCH
  5
2000A
100
AcDbEntity
  8
0
100
AcDbHatch
 10
0
 20
0
 30
0
210
0
220
0
230
1
  2
SOLID
 70
1
 71
0
 91
1
 92
2
 72
0
 73
1
 93
14
 10
701369.589866113
 20
9322081.00599441
 10
701325.021334651
 20
9322071.59144736
 10
701311.106012346
 20
9322050.11563212
 10
701316.427220551
 20
9322021.9980597
 10
701283.901482144
 20
9322014.33621042
 10
701293.352338924
 20
9321961.69223238
 10
701286.00843605
 20
9321925.84531191
 10
701334.090698798
 20
9321906.550581
 10
701405.067166922
 20
9321894.35246598
 10
701489.95699303
 20
9321903.03226262
 10
701550.811916651
 20
9321923.15299262
 10
701520.604766201
 20
9322066.7427928
 10
701382.086479188
 20
9322039.11325593
 10
701369.589866113
 20
9322081.00599441
 97
0
 75
0
 76
1
 98
0
  0
HATCH
  5
2000B
100
AcDbEntity
  8
0
100
AcDbHatch
 10
0
 20
0
 30
0
210
0
220
0
230
1
  2
SOLID
 70
1
 71
0
 91
1
 92
2
 72
0
 73
1
 93
13
 10
700818.776120679
 20
9322522.08706101
 10
700793.392664018
 20
9322518.59946774
 10
700800.007877677
 20
9322481.683534
 10
700836.107950536
 20
9322487.91042753
 10
700839.380638982
 20
9322434.74334032
 10
700822.005808764
 20
9322425.1239176
 10
700845.439901984
 20
9322375.13781154
 10
701005.931502204
 20
9322404.56177856
 10
701199.301855038
 20
9322252.8191647
 10
701218.829302075
 20
9322276.79393562
 10
701006.290646496
 20
9322448.7600829
 10
700897.530057186
 20
9322504.70706507
 10
700818.776120679
 20
9322522.08706101
 97
0
 75
0
 76
1
 98
0
  0
HATCH
  5
2000C
100
AcDbEntity
  8
0
100
AcDbHatch
 10
0
 20
0
 30
0
210
0
220
0
230
1
  2
SOLID
 70
1
 71
0
 91
1
 92
2
 72
0
 73
1
 93
12
 10
700834.697811991
 20
9322115.04333927
 10
700768.747243623
 20
9322122.63991843
 10
700654.918364058
 20
9322116.47151536
 10
700530.277871208
 20
9322083.30482113
 10
700363.517237098
 20
9322032.25692714
 10
700370.036987036
 20
9322009.29620856
 10
700639.113634309
 20
9322076.38253075
 10
700718.333235617
 20
9322090.86047565
 10
700777.702544769
 20
9322088.20161335
 10
700818.90403026
 20
9322078.23108487
 10
700836.214354317
 20
9322075.71467707
 10
700834.697811991
 20
9322115.04333927
 97
0
 75
0
 76
1
 98
0
  0
HATCH
  5
2000D
100
AcDbEntity
  8
0
100
AcDbHatch
 10
0
 20
0
 30
0
210
0
220
0
230
1
  2
SOLID
 70
1
 71
0
 91
1
 92
2
 72
0
 73
1
 93
17
 10
700568.362291715
 20
9322792.44644195
 10
700518.006235133
 20
9322823.18096151
 10
700458.913458106
 20
9322817.8787978
 10
700506.756895936
 20
9322589.70600089
 10
700471.693984651
 20
9322593.49212562
 10
700397.886289057
 20
9322604.13319206
 10
700409.986909647
 20
9322542.96310496
 10
700479.333480527
 20
9322533.85132597
 10
700571.062688783
 20
9322491.59441455
 10
700587.622042049
 20
9322470.70722643
 10
700625.394542573
 20
9322492.32588275
 10
700639.263020535
 20
9322527.62504601
 10
700701.930044327
 20
9322505.88399469
 10
700668.573799323
 20
9322681.32044602
 10
700628.407189131
 20
9322686.49224855
 10
700568.584885544
 20
9322731.16269158
 10
700568.362291715
 20
9322792.44644195
 97
0
 75
0
 76
1
 98
0
  0
HATCH
  5
2000E
100
AcDbEntity
  8
0
100
AcDbHatch
 10
0
 20
0
 30
0
210
0
220
0
230
1
  2
SOLID
 70
1
 71
0
 91
1
 92
2
 72
0
 73
1
 93
15
 10
700285.326264245
 20
9322507.71270105
 10
700302.989779097
 20
9322430.69691881
 10
700323.096873872
 20
9322434.69246741
 10
700404.515474653
 20
9322454.28247384
 10
700482.298800981
 20
9322489.60243261
 10
700518.200589007
 20
9322492.47720332
 10
700545.879742048
 20
9322472.69782122
 10
700557.684543531
 20
9322438.55454856
 10
700567.735249369
 20
9322393.62816134
 10
700626.108027484
 20
9322404.26563214
 10
700563.833912656
 20
9322485.14061635
 10
700483.206437804
 20
9322519.16863968
 10
700389.452501851
 20
9322532.91384826
 10
700300.6049086
 20
9322525.26812738
 10
700285.326264245
 20
9322507.71270105
 97
0
 75
0
 76
1
 98
0
  0
HATCH
  5
2000F
100
AcDbEntity
  8
0
100
AcDbHatch
 10
0
 20
0
 30
0
210
0
220
0
230
1
  2
SOLID
 70
1
 71
0
 91
1
 92
2
 72
0
 73
1
 93
24
 10
700317.036111398
 20
9322365.68977885
 10
700362.109998559
 20
9322368.61296648
 10
700355.465527707
 20
9322396.73833719
 10
700499.785064433
 20
9322448.82197634
 10
700521.732108659
 20
9322402.5261105
 10
700532.263564848
 20
9322353.35766181
 10
700566.270255201
 20
9322297.13574928
 10
700576.521304091
 20
9322271.02801618
 10
700611.932073422
 20
9322240.61984608
 10
700700.101056981
 20
9322186.56211756
 10
700743.725475131
 20
9322175.21038709
 10
700786.553596287
 20
9322148.61544622
 10
700817.309075307
 20
9322146.05505743
 10
700799.764160885
 20
9322169.469159
 10
700730.819262332
 20
9322208.22774533
 10
700645.365314773
 20
9322242.67825181
 10
700590.339888581
 20
9322279.95260316
 10
700549.747580446
 20
9322405.0955811
 10
700528.222096381
 20
9322468.01618779
 10
700497.985077555
 20
9322477.61293607
 10
700442.926157223
 20
9322452.97815015
 10
700386.255551368
 20
9322430.4152651
 10
700311.330271118
 20
9322407.61871177
 10
700317.036111398
 20
9322365.68977885
 97
0
 75
0
 76
1
 98
0
  0
HATCH
  5
20010
100
AcDbEntity
  8
0
100
AcDbHatch
 10
0
 20
0
 30
0
210
0
220
0
230
1
  2
SOLID
 70
1
 71
0
 91
1
 92
2
 72
0
 73
1
 93
10
 10
700619.027924427
 20
9322284.82178175
 10
700628.97354923
 20
9322278.0926165
 10
700659.217774362
 20
9322258.62769003
 10
700760.260578829
 20
9322211.79586292
 10
700765.591837241
 20
9322233.70564369
 10
700712.98217009
 20
9322258.44436727
 10
700677.568915318
 20
9322275.4972842
 10
700639.810220569
 20
9322300.65734983
 10
700629.05544229
 20
9322293.95037518
 10
700619.027924427
 20
9322284.82178175
 97
0
 75
0
 76
1
 98
0
  0
ENDSEC
  0
SECTION
  2
OBJECTS
  0
DICTIONARY
  5
C
330
0
100
AcDbDictionary
281
     1
  3
ACAD_GROUP
350
D
  3
ACAD_LAYOUT
350
1A
  3
ACAD_MLEADERSTYLE
350
43
  3
ACAD_PLOTSETTINGS
350
19
  3
ACAD_PLOTSTYLENAME
350
E
  3
ACAD_TABLESTYLE
350
42
  0
DICTIONARY
  5
D
102
{ACAD_REACTORS
330
C
102
}
330
C
100
AcDbDictionary
281
     1
  0
DICTIONARY
  5
1A
102
{ACAD_REACTORS
330
C
102
}
330
C
100
AcDbDictionary
281
     1
  3
Layout1
350
1E
  3
Model
350
22
  0
DICTIONARY
  5
43
102
{ACAD_REACTORS
330
C
102
}
330
C
100
AcDbDictionary
281
     1
  0
DICTIONARY
  5
19
102
{ACAD_REACTORS
330
C
102
}
330
C
100
AcDbDictionary
281
     1
  0
ACDBDICTIONARYWDFLT
  5
E
102
{ACAD_REACTORS
330
C
102
}
330
C
100
AcDbDictionary
281
     1
  3
Normal
350
F
100
AcDbDictionaryWithDefault
340
F
  0
DICTIONARY
  5
42
102
{ACAD_REACTORS
330
C
102
}
330
C
100
AcDbDictionary
281
     1
  0
LAYOUT
  5
1E
102
{ACAD_REACTORS
330
1A
102
}
330
1A
100
AcDbPlotSettings
  1

  2
none_device
  4

  6

 40
0.0
 41
0.0
 42
0.0
 43
0.0
 44
0.0
 45
0.0
 46
0.0
 47
0.0
 48
0.0
 49
0.0
140
0.0
141
0.0
142
1.0
143
1.0
 70
   688
 72
     0
 73
     0
 74
     5
  7

 75
    16
 76
     0
 77
     2
 78
   300
147
1.0
148
0.0
149
0.0
100
AcDbLayout
  1
Layout1
 70
     1
 71
     1
 10
0.0
 20
0.0
 11
12.0
 21
9.0
 12
0.0
 22
0.0
 32
0.0
 14
1.000000000000000E+20
 24
1.000000000000000E+20
 34
1.000000000000000E+20
 15
-1.000000000000000E+20
 25
-1.000000000000000E+20
 35
-1.000000000000000E+20
146
0.0
 13
0.0
 23
0.0
 33
0.0
 16
1.0
 26
0.0
 36
0.0
 17
0.0
 27
1.0
 37
0.0
 76
     0
330
1B
  0
LAYOUT
  5
22
102
{ACAD_REACTORS
330
1A
102
}
330
1A
100
AcDbPlotSettings
  1

  2
none_device
  4

  6

 40
0.0
 41
0.0
 42
0.0
 43
0.0
 44
0.0
 45
0.0
 46
0.0
 47
0.0
 48
0.0
 49
0.0
140
0.0
141
0.0
142
1.0
143
1.0
 70
  1712
 72
     0
 73
     0
 74
     0
  7

 75
     0
 76
     0
 77
     2
 78
   300
147
1.0
148
0.0
149
0.0
100
AcDbLayout
  1
Model
 70
     1
 71
     0
 10
0.0
 20
0.0
 11
12.0
 21
9.0
 12
0.0
 22
0.0
 32
0.0
 14
30.0
 24
49.75
 34
0.0
 15
130.5
 25
163.1318914119703
 35
0.0
146
0.0
 13
0.0
 23
0.0
 33
0.0
 16
1.0
 26
0.0
 36
0.0
 17
0.0
 27
1.0
 37
0.0
 76
     0
330
1F
331
29
  0
ENDSEC
  0
EOF
